<svg id="Layer_1" data-name="Layer 1" xmlns="http://www.w3.org/2000/svg" viewBox="0 0 196.17 181.9"><defs><style>.cls-1{fill:#139de9;}</style></defs><path class="cls-1" d="M153.2,59.5a28,28,0,0,0-.32-4.29c-.59-3.26-1.27-6.51-2-9.74-.36-1.61-.77-3.24-2.38-4.16a20.86,20.86,0,0,0-10.8-3c-2.08,0-4.17,0-6.24.18s-3.88.38-5.81.66a1.15,1.15,0,0,1-1.28-.52c-1.72-2.23-3.36-4.53-5.28-6.57A76,76,0,0,0,106,21,20,20,0,0,0,99,17.63a4.15,4.15,0,0,0-1.53,0,14.78,14.78,0,0,0-6.26,2.92c-4.5,3.4-9.07,6.71-12.92,10.88-2.12,2.29-4.38,4.48-5.91,7.24-.36.64-.75.68-1.39.59a53.71,53.71,0,0,0-6.42-.84c-3.14-.11-6.34-.39-9.42.44a45,45,0,0,0-6.95,2.5c-2.13,1-2.6,3.24-3.15,5.26a53.64,53.64,0,0,0-2,11.42,67.74,67.74,0,0,0,1.56,19.06c.91,3.88,2.12,7.7,3.38,11.49a55.8,55.8,0,0,0,9.34,17,49,49,0,0,0,9.83,9.58,55.23,55.23,0,0,0,10.89,6.19,51,51,0,0,0,8.12,3.08c1.72.39,3.41.94,5.13,1.29s3.41.52,5.09.76v18.23a1.22,1.22,0,0,1-.46-.52,39.45,39.45,0,0,0-5.55-8c-3.62-3.65-8.08-5.79-12.88-7.31a36.64,36.64,0,0,0-13.83-1.7A31.38,31.38,0,0,0,58,128.52c-.42.11-1,.63-1,1a6.59,6.59,0,0,0,.25,2.69c.48,1.38,1.18,2.68,1.79,4a38.06,38.06,0,0,0,10.48,13.53A42.73,42.73,0,0,0,93,159.25l3,.32c0,.53,0,1,0,1.39s.11.9.17,1.35a2.27,2.27,0,0,0,1.92,2.05,2.11,2.11,0,0,0,2.11-1.9c.13-.69.12-1.39.21-2.09.07-.46.08-.9.8-1a58.37,58.37,0,0,0,6-.8,46.18,46.18,0,0,0,18.55-8.19,38,38,0,0,0,11.46-14.2,25,25,0,0,0,2-4.61c.56-2.24.33-2.77-1.56-3.38a25.22,25.22,0,0,0-10.5-.88,40.73,40.73,0,0,0-10.92,2.59c-6.07,2.41-11.05,6.12-14.27,11.94l-1.85,3.3V126.43c1.79-.23,3.54-.35,5.23-.71a62.58,62.58,0,0,0,6.87-1.82,59.79,59.79,0,0,0,14-6.48,49.49,49.49,0,0,0,12.57-11.57,63.71,63.71,0,0,0,5.31-7.79c3.36-6.15,5.34-12.84,7.06-19.6A68.38,68.38,0,0,0,153.2,59.5ZM61.54,131.85c8.13-1.51,15.53.3,22.5,4.49,6.13,3.69,11.6,14.91,11.54,18.76A37.14,37.14,0,0,1,61.54,131.85Zm73.21,0a35.35,35.35,0,0,1-9.38,13.5c-7.79,7-18.83,9.86-24.51,9.77C104.34,137.59,119.32,129.15,134.75,131.86ZM98.28,41a2.28,2.28,0,1,1,2.28-2.28A2.28,2.28,0,0,1,98.28,41ZM104,77.84A5.87,5.87,0,1,1,98.12,72,5.86,5.86,0,0,1,104,77.84ZM148.9,64.47c.08,4.22-.93,8.29-1.7,12.39A71.34,71.34,0,0,1,143,90.78a49.63,49.63,0,0,1-7.26,12.28,50.89,50.89,0,0,1-14,12.24A58.63,58.63,0,0,1,111.06,120a50.78,50.78,0,0,1-10.61,2.19,1,1,0,0,1-.3-.06V89.88a12.23,12.23,0,0,0,5.8-2.66c2.27,2,4.51,3.94,6.78,5.9,2,1.7,4,3.37,5.9,5.09a1,1,0,0,1,.2.33A6,6,0,1,0,121,95.91a1,1,0,0,1-.24-.16c-2.91-2.62-5.87-5.19-8.82-7.77q-1.7-1.49-3.41-2.94l-.32-.26a12.14,12.14,0,0,0,2.1-5.64l17.51-.07a3.28,3.28,0,0,1,1.86.41,6,6,0,1,0-.18-4,5.94,5.94,0,0,1-1.57.13c-5.92-.08-11.85,0-17.77,0a11.9,11.9,0,0,0-1.45-3.86q5.77-5,11.57-10a15.57,15.57,0,0,1,1.26-1l.1,0a6,6,0,1,0-2.43-2.35.74.74,0,0,1-.17.21q-6.19,5.26-12.42,10.5l0,0a12.13,12.13,0,0,0-6.41-3.21V44.4a6,6,0,1,0-3.66,0V65.74a12.2,12.2,0,0,0-6.44,3c-2.81-2.29-5.6-4.61-8.37-6.93-1.34-1.12-2.63-2.3-4-3.41l0-.06A6,6,0,1,0,75,60.68a7,7,0,0,1,.88.72c3.27,2.9,6.63,5.71,9.94,8.56.6.51,1.19,1,1.8,1.57a12.23,12.23,0,0,0-1.55,4c-6.23,0-12.46,0-18.69,0a1.94,1.94,0,0,1-.36,0A6,6,0,1,0,67,79.26a1.14,1.14,0,0,1,.65-.17c4.33,0,8.66,0,13,0H86a12.09,12.09,0,0,0,2.09,5.63l-5,4.35c-2.42,2.11-4.83,4.24-7.27,6.34a1,1,0,0,1-.32.17A6,6,0,1,0,77.74,98c4.06-3.45,8.34-7.07,12.59-10.72a12.19,12.19,0,0,0,6.15,2.67v32.23c-1.3-.14-2.56-.24-3.81-.42-6.4-.92-12.16-3.63-17.76-6.64a43.36,43.36,0,0,1-8.66-6.28A55.71,55.71,0,0,1,52,87.42a63.55,63.55,0,0,1-2.58-9.24,104.2,104.2,0,0,1-1.86-10.34,77.88,77.88,0,0,1-.24-7.8,41.67,41.67,0,0,1,2.59-14.7,1.74,1.74,0,0,1,.91-.92A35.88,35.88,0,0,1,60,42.51c4.09-.36,8.09.35,12.1.85a2.68,2.68,0,0,0,2.71-1.14c1.17-1.61,2.24-3.3,3.48-4.85,2.62-3.27,5.9-5.87,9-8.67A62.55,62.55,0,0,1,97.14,22a2.08,2.08,0,0,1,1.79,0c2.56,1.43,5.13,2.87,7.55,4.51a62.39,62.39,0,0,1,11,9.63,42.57,42.57,0,0,1,3.68,5c1.51,2.26,2,2.47,4.7,2a43,43,0,0,1,5.55-.57,61.46,61.46,0,0,1,6.51,0,20.57,20.57,0,0,1,7.92,2,1.78,1.78,0,0,1,.8,1,54.68,54.68,0,0,1,2.24,11.09C149,59.2,148.85,61.84,148.9,64.47Zm-22.93,38a2.28,2.28,0,1,1,0-3.22A2.28,2.28,0,0,1,126,102.43Zm6.93-25.2a2.28,2.28,0,1,1,2.27,2.28A2.27,2.27,0,0,1,132.9,77.23ZM122.75,53.68a2.28,2.28,0,1,1,0,3.23A2.29,2.29,0,0,1,122.75,53.68ZM74.08,56.91a2.28,2.28,0,1,1,0-3.23A2.29,2.29,0,0,1,74.08,56.91ZM63.61,77.23A2.28,2.28,0,1,1,61.33,75,2.28,2.28,0,0,1,63.61,77.23Zm10.47,25.2a2.28,2.28,0,1,1,0-3.22A2.28,2.28,0,0,1,74.08,102.43Z"/></svg>
